# xmcd
#
# Track frame offsets:
#	150
#	20360
#	38486
#	51317
#	66546
#	87803
#	102550
#	116149
#	130676
#	150148
#	165091
#	180480
#	195399
#	212642
#	231749
#
# Disc length: 3267 seconds
#
# Revision: 0
# Processed by: cddbd v1.5.1PL0 Copyright (c) Steve Scherf et al.
# Submitted via: dBpowerAMP V4.0
#
DISCID=bf0cc10f
DTITLE=Louis Armstrong - Love songs
DYEAR=1999
DGENRE=Blues
TTITLE0=I'm crazy 'bout my baby
TTITLE1=Keepin' out of mischief now
TTITLE2=I can't give you anything but love
TTITLE3=Squeeze me
TTITLE4=Body and soul
TTITLE5=I'm confessin' (that I love you)
TTITLE6=Honeysuckle rose
TTITLE7=I've got a feeling I'm falling
TTITLE8=One moment worth years
TTITLE9=My sweet
TTITLE10=I'm in the market for you
TTITLE11=If I could be with you (one hour tonight)
TTITLE12=Ko ko mo (I love you so)
TTITLE13=All of me
TTITLE14=I didn't know until you told me
EXTD=
EXTT0=
EXTT1=
EXTT2=
EXTT3=
EXTT4=
EXTT5=
EXTT6=
EXTT7=
EXTT8=
EXTT9=
EXTT10=
EXTT11=
EXTT12=
EXTT13=
EXTT14=
PLAYORDER=
